support.ufo
<glyph name="ampersand" format="2">
  <advance width="2731"/>
  <unicode hex="0026"/>
  <outline>
    <contour>
      <point x="2227" y="1600" type="line"/>
      <point x="1031" y="1600" type="line"/>
      <point x="700" y="1106" type="line"/>
      <point x="700" y="836" type="line"/>
      <point x="160" y="836" type="line"/>
      <point x="160" y="0" type="line"/>
      <point x="1617" y="0" type="line"/>
      <point x="1895" y="423" type="line"/>
      <point x="2002" y="423" type="line"/>
      <point x="2437" y="-154" type="line"/>
      <point x="2721" y="36" type="line"/>
      <point x="2221" y="685" type="line"/>
      <point x="1692" y="685" type="line"/>
      <point x="1395" y="248" type="line"/>
      <point x="543" y="248" type="line"/>
      <point x="543" y="577" type="line"/>
      <point x="1083" y="577" type="line"/>
      <point x="1083" y="1080" type="line"/>
      <point x="1268" y="1357" type="line"/>
      <point x="1844" y="1357" type="line"/>
      <point x="1844" y="925" type="line"/>
      <point x="2227" y="925" type="line"/>
    </contour>
  </outline>
</glyph>
<glyph name="quotesingle" format="2">
  <advance width="573"/>
  <unicode hex="0027"/>
  <outline>
    <contour>
      <point x="131" y="951" type="line" identifier="1m237t4hyw"/>
      <point x="441" y="951" type="line" identifier="S4rO5KuHiL"/>
      <point x="471" y="1600" type="line" identifier="zfocDyDTCM"/>
      <point x="102" y="1600" type="line" identifier="v7N4yg5XNk"/>
    </contour>
    <component base="comma" xScale="0.8450801151501852" yScale="0.8" xOffset="-288" yOffset="1407"/>
  </outline>
</glyph>
<glyph name="asterisk" format="2">
  <advance width="976"/>
  <unicode hex="002A"/>
  <outline>
    <contour>
      <point x="317" y="989" type="line"/>
      <point x="490" y="1240" type="line"/>
      <point x="677" y="989" type="line"/>
      <point x="826" y="1086" type="line"/>
      <point x="529" y="1280" type="line"/>
      <point x="882" y="1310" type="line"/>
      <point x="852" y="1448" type="line"/>
      <point x="526" y="1329" type="line"/>
      <point x="587" y="1600" type="line"/>
      <point x="392" y="1600" type="line"/>
      <point x="453" y="1328" type="line"/>
      <point x="134" y="1445" type="line"/>
      <point x="102" y="1314" type="line"/>
      <point x="449" y="1279" type="line"/>
      <point x="161" y="1084" type="line"/>
    </contour>
  </outline>
</glyph>
<glyph name="zero" format="2">
  <advance width="2819"/>
  <unicode hex="0030"/>
  <outline>
    <contour>
      <point x="276" y="0" type="line" identifier="4KX3b3mGg4"/>
      <point x="2543" y="0" type="line" identifier="V2j8wYP0nr"/>
      <point x="2543" y="1600" type="line" identifier="NaxGoenf3y"/>
      <point x="276" y="1600" type="line" identifier="rx6fJSLiri"/>
    </contour>
    <contour>
      <point x="659" y="243" type="line"/>
      <point x="659" y="1357" type="line"/>
      <point x="2160" y="1357" type="line"/>
      <point x="2160" y="243" type="line"/>
    </contour>
  </outline>
</glyph>
<glyph name="three" format="2">
  <advance width="2687"/>
  <unicode hex="0033"/>
  <outline>
    <contour>
      <point x="210" y="0" type="line" identifier="O9abUc1nmN"/>
      <point x="2500" y="0" type="line" identifier="kMJYMTfXCq"/>
      <point x="2500" y="901" type="line" identifier="su2XmdS8e8"/>
      <point x="2154" y="901" type="line" identifier="JQaOzDQqlF"/>
      <point x="2338" y="1130" type="line"/>
      <point x="2338" y="1600" type="line" identifier="xg8x2Ki40p"/>
      <point x="302" y="1600" type="line" identifier="pE1XSRiy68"/>
      <point x="302" y="1047" type="line" identifier="5lNstGRcSF"/>
      <point x="686" y="1047" type="line" identifier="AcE5xKDZfE"/>
      <point x="686" y="1367" type="line" identifier="7ogBYufWpl"/>
      <point x="1955" y="1367" type="line" identifier="RHLvSX2Jv6"/>
      <point x="1955" y="1114" type="line"/>
      <point x="1787" y="901" type="line" identifier="iic1IBkDqp"/>
      <point x="898" y="900" type="line" identifier="lRLJEhXMlO"/>
      <point x="898" y="697" type="line" identifier="8aKgEELrVU"/>
      <point x="2116" y="697" type="line" identifier="Dm8zjmbhNr"/>
      <point x="2116" y="233" type="line" identifier="xv9CFHiFgB"/>
      <point x="593" y="233" type="line" identifier="YajKQV3MHP"/>
      <point x="593" y="594" type="line" identifier="36SchVkwze"/>
      <point x="210" y="594" type="line" identifier="tVui9PiOjA"/>
    </contour>
  </outline>
</glyph>
<glyph name="four" format="2">
  <advance width="2529"/>
  <unicode hex="0034"/>
  <outline>
    <contour>
      <point x="1781" y="0" type="line"/>
      <point x="2164" y="0" type="line"/>
      <point x="2164" y="662" type="line"/>
      <point x="2415" y="662" type="line"/>
      <point x="2415" y="904" type="line"/>
      <point x="2164" y="904" type="line"/>
      <point x="2164" y="1600" type="line"/>
      <point x="1781" y="1600" type="line"/>
      <point x="1781" y="904" type="line"/>
      <point x="462" y="904" type="line"/>
      <point x="462" y="1012" type="line"/>
      <point x="667" y="1610" type="line"/>
      <point x="335" y="1699" type="line"/>
      <point x="78" y="1012" type="line"/>
      <point x="78" y="662" type="line"/>
      <point x="1781" y="662" type="line"/>
    </contour>
  </outline>
</glyph>
<glyph name="seven" format="2">
  <advance width="2597"/>
  <unicode hex="0037"/>
  <outline>
    <contour>
      <point x="1096" y="9" type="line"/>
      <point x="1392" y="-147" type="line" identifier="PiPrv7Kcoy"/>
      <point x="2452" y="1105" type="line" identifier="PkvwNC9Tx1"/>
      <point x="2452" y="1600" type="line" identifier="tgqM27bPOm"/>
      <point x="204" y="1600" type="line" identifier="36ml4xRICt"/>
      <point x="204" y="966" type="line" identifier="aaDZsh5Mah"/>
      <point x="588" y="966" type="line"/>
      <point x="588" y="1367" type="line"/>
      <point x="2069" y="1367" type="line"/>
      <point x="2069" y="1185" type="line"/>
    </contour>
  </outline>
</glyph>
<glyph name="eight" format="2">
  <advance width="2711"/>
  <unicode hex="0038"/>
  <outline>
    <contour>
      <point x="1917" y="694" type="line"/>
      <point x="2135" y="561" type="line"/>
      <point x="2135" y="225" type="line"/>
      <point x="576" y="225" type="line"/>
      <point x="576" y="684" type="line"/>
    </contour>
    <contour>
      <point x="2279" y="791" type="line"/>
      <point x="2279" y="820" type="line"/>
      <point x="2451" y="820" type="line"/>
      <point x="2451" y="1600" type="line"/>
      <point x="234" y="1600" type="line"/>
      <point x="234" y="985" type="line"/>
      <point x="447" y="816" type="line"/>
      <point x="447" y="788" type="line"/>
      <point x="193" y="788" type="line"/>
      <point x="193" y="0" type="line"/>
      <point x="2518" y="0" type="line"/>
      <point x="2518" y="618" type="line"/>
    </contour>
    <contour>
      <point x="790" y="906" type="line"/>
      <point x="598" y="1037" type="line"/>
      <point x="598" y="1375" type="line"/>
      <point x="2077" y="1375" type="line"/>
      <point x="2077" y="916" type="line"/>
    </contour>
  </outline>
</glyph>
<glyph name="greater" format="2">
  <advance width="1321"/>
  <unicode hex="003E"/>
  <outline>
    <contour>
      <point x="196" y="339" type="line"/>
      <point x="1276" y="680" type="line"/>
      <point x="1276" y="893" type="line"/>
      <point x="192" y="1241" type="line"/>
      <point x="140" y="1066" type="line"/>
      <point x="1000" y="797" type="line"/>
      <point x="1000" y="776" type="line"/>
      <point x="142" y="512" type="line"/>
    </contour>
  </outline>
</glyph>
<glyph name="question" format="2">
  <advance width="1647"/>
  <unicode hex="003F"/>
  <outline>
    <contour>
      <point x="404" y="422" type="line"/>
      <point x="1567" y="691" type="line" identifier="yHYqkMd7LI"/>
      <point x="1568" y="1599" type="line" identifier="TBAYuCfUFX"/>
      <point x="-50" y="1599" type="line" identifier="NUrIjqOB7J"/>
      <point x="-50" y="950" type="line" identifier="0tk7G4orz6"/>
      <point x="333" y="950" type="line" identifier="vZkeT9KrKR"/>
      <point x="333" y="1356" type="line" identifier="4E754ovOIe"/>
      <point x="1185" y="1356" type="line" identifier="ZvzwyrcwpS"/>
      <point x="1184" y="911" type="line"/>
      <point x="338" y="704" type="line"/>
    </contour>
    <contour>
      <point x="567" y="0" type="line" identifier="S4rO5KuHiL"/>
      <point x="953" y="0" type="line" identifier="1m237t4hyw"/>
      <point x="953" y="332" type="line"/>
      <point x="567" y="332" type="line" identifier="zfocDyDTCM"/>
    </contour>
  </outline>
</glyph>
<glyph name="A" format="2">
  <advance width="2525"/>
  <unicode hex="0041"/>
  <outline>
    <contour>
      <point x="64" y="23" type="line" smooth="yes"/>
      <point x="424" y="-21" type="line"/>
      <point x="750" y="1357" type="line" smooth="yes"/>
      <point x="1766" y="1357" type="line"/>
      <point x="2092" y="-21" type="line" smooth="yes"/>
      <point x="2461" y="22" type="line" smooth="yes"/>
      <point x="2035" y="1600" type="line" smooth="yes"/>
      <point x="490" y="1600" type="line" smooth="yes"/>
    </contour>
    <contour>
      <point x="509" y="617" type="line"/>
      <point x="2003" y="617" type="line"/>
      <point x="1932" y="860" type="line"/>
      <point x="580" y="860" type="line"/>
    </contour>
  </outline>
</glyph>
<glyph name="B" format="2">
  <advance width="2789"/>
  <unicode hex="0042"/>
  <outline>
    <contour>
      <point x="276" y="0" type="line"/>
      <point x="2346" y="0" type="line"/>
      <point x="2641" y="397" type="line"/>
      <point x="2641" y="900" type="line"/>
      <point x="2138" y="900" type="line"/>
      <point x="2323" y="1115" type="line"/>
      <point x="2323" y="1600" type="line"/>
      <point x="276" y="1600" type="line"/>
    </contour>
    <contour>
      <point x="659" y="233" type="line"/>
      <point x="659" y="694" type="line"/>
      <point x="2257" y="694" type="line"/>
      <point x="2257" y="444" type="line"/>
      <point x="2098" y="233" type="line"/>
    </contour>
    <contour>
      <point x="659" y="906" type="line"/>
      <point x="659" y="1367" type="line"/>
      <point x="1940" y="1367" type="line"/>
      <point x="1940" y="1129" type="line"/>
      <point x="1754" y="906" type="line"/>
    </contour>
  </outline>
</glyph>
<glyph name="C" format="2">
  <advance width="2686"/>
  <unicode hex="0043"/>
  <outline>
    <contour>
      <point x="179" y="0" type="line" identifier="7lPhzTnk2Z"/>
      <point x="2445" y="0" type="line" identifier="qJVLZGnkwh"/>
      <point x="2445" y="585" type="line" identifier="nDnDHzAMXL"/>
      <point x="2061" y="585" type="line" identifier="QX1V08aTu0"/>
      <point x="2061" y="243" type="line" identifier="Y750RHTvDj"/>
      <point x="562" y="243" type="line" identifier="L2LsGnXiZ2"/>
      <point x="562" y="1101" type="line" identifier="sUWsr03vF4"/>
      <point x="737" y="1357" type="line" identifier="dbOUe6OhxL"/>
      <point x="2057" y="1357" type="line" identifier="5BjRbcud80"/>
      <point x="2057" y="1001" type="line" identifier="fNVDqwQo2o"/>
      <point x="2440" y="1001" type="line" identifier="wLqQQx7QVN"/>
      <point x="2440" y="1600" type="line" identifier="9eJelv8BOw"/>
      <point x="474" y="1600" type="line" identifier="lfZev3ICaC"/>
      <point x="179" y="1181" type="line" identifier="V1EWIdPahq"/>
    </contour>
  </outline>
</glyph>
<glyph name="S" format="2">
  <advance width="2585"/>
  <unicode hex="0053"/>
  <outline>
    <contour>
      <point x="177" y="0" type="line" identifier="09VlJ0BjUX"/>
      <point x="2101" y="0" type="line" identifier="EagWihqFM8"/>
      <point x="2409" y="409" type="line"/>
      <point x="2409" y="917" type="line" identifier="KfNuQA7eZe"/>
      <point x="515" y="917" type="line" identifier="At364YZFEy"/>
      <point x="515" y="1141" type="line"/>
      <point x="694" y="1388" type="line"/>
      <point x="1990" y="1388" type="line" identifier="3ZUkG35meB"/>
      <point x="1990" y="1094" type="line" identifier="DTOJhFIl15"/>
      <point x="2373" y="1094" type="line" identifier="9KDcrfQ5Ui"/>
      <point x="2373" y="1600" type="line" identifier="SaF9ojRFrW"/>
      <point x="487" y="1600" type="line"/>
      <point x="178" y="1177" type="line"/>
      <point x="178" y="686" type="line" identifier="3sQ8t8BZ6b"/>
      <point x="2069" y="686" type="line" identifier="yiV6OCBLHg"/>
      <point x="2070" y="445" type="line"/>
      <point x="1887" y="214" type="line" identifier="9kdl9SYsn8"/>
      <point x="560" y="214" type="line" identifier="yZDWuX8LLe"/>
      <point x="560" y="514" type="line" identifier="jYb9001DTm"/>
      <point x="178" y="514" type="line" identifier="ho4DrS0rdW"/>
    </contour>
  </outline>
</glyph>
<glyph name="W" format="2">
  <advance width="3375"/>
  <unicode hex="0057"/>
  <outline>
    <contour>
      <point x="458" y="0" type="line"/>
      <point x="1235" y="0" type="line"/>
      <point x="1599" y="1369" type="line"/>
      <point x="1771" y="1369" type="line" identifier="9aKZPM0HPh"/>
      <point x="2142" y="0" type="line"/>
      <point x="2916" y="0" type="line"/>
      <point x="3305" y="1564" type="line"/>
      <point x="2953" y="1609" type="line"/>
      <point x="2626" y="183" type="line"/>
      <point x="2443" y="183" type="line"/>
      <point x="2060" y="1600" type="line" identifier="spdoeeCFft"/>
      <point x="1310" y="1600" type="line" identifier="0Dn4Xpf57M"/>
      <point x="930" y="183" type="line"/>
      <point x="743" y="183" type="line"/>
      <point x="420" y="1610" type="line"/>
      <point x="69" y="1564" type="line"/>
    </contour>
  </outline>
</glyph>
<glyph name="Z" format="2">
  <advance width="2606"/>
  <unicode hex="005A"/>
  <outline>
    <contour>
      <point x="182" y="0" type="line"/>
      <point x="2422" y="0" type="line" identifier="pzdvPTirLJ"/>
      <point x="2423" y="632" type="line" identifier="91SxUS0iwG"/>
      <point x="2039" y="632" type="line"/>
      <point x="2039" y="233" type="line"/>
      <point x="558" y="234" type="line"/>
      <point x="558" y="398" type="line"/>
      <point x="2411" y="1146" type="line" identifier="yyb1NCCI5w"/>
      <point x="2411" y="1600" type="line" identifier="5FogYRSgkk"/>
      <point x="196" y="1600" type="line" identifier="svlFvrau4c"/>
      <point x="196" y="1008" type="line" identifier="LQ9fBsTy9K"/>
      <point x="559" y="1008" type="line"/>
      <point x="559" y="1367" type="line"/>
      <point x="2035" y="1366" type="line"/>
      <point x="2035" y="1271" type="line"/>
      <point x="183" y="522" type="line" identifier="teVKnpBcVb"/>
    </contour>
  </outline>
</glyph>
<glyph name="bar" format="2">
  <advance width="935"/>
  <unicode hex="007C"/>
  <outline>
    <contour>
      <point x="276" y="-145" type="line"/>
      <point x="659" y="-145" type="line"/>
      <point x="659" y="1745" type="line"/>
      <point x="276" y="1745" type="line"/>
    </contour>
  </outline>
</glyph>
<glyph name="ordfeminine" format="2">
  <advance width="986"/>
  <unicode hex="00AA"/>
  <outline>
    <contour>
      <point x="774" y="1256" type="line" smooth="yes"/>
      <point x="65" y="1256" type="line"/>
      <point x="65" y="839" type="line" smooth="yes"/>
      <point x="214" y="839" type="line" smooth="yes"/>
      <point x="214" y="1166" type="line" smooth="yes"/>
      <point x="774" y="1166" type="line" smooth="yes"/>
      <point x="774" y="839" type="line" smooth="yes"/>
      <point x="923" y="839" type="line" smooth="yes"/>
      <point x="923" y="1600" type="line" smooth="yes"/>
      <point x="65" y="1600" type="line" smooth="yes"/>
      <point x="65" y="1343" type="line"/>
      <point x="214" y="1343" type="line"/>
      <point x="214" y="1510" type="line" smooth="yes"/>
      <point x="774" y="1510" type="line" smooth="yes"/>
    </contour>
    <contour>
      <point x="212" y="929" type="line"/>
      <point x="212" y="839" type="line"/>
      <point x="774" y="839" type="line"/>
      <point x="774" y="929" type="line"/>
    </contour>
  </outline>
</glyph>
<glyph name="quoteleft" format="2">
  <advance width="553"/>
  <unicode hex="2018"/>
  <outline>
    <contour>
      <point x="474" y="1600" type="line"/>
      <point x="209" y="1600" type="line"/>
      <point x="51" y="1057" type="line"/>
      <point x="434" y="1057" type="line"/>
    </contour>
  </outline>
</glyph>
<glyph name="summation" format="2">
  <advance width="2619"/>
  <unicode hex="2211"/>
  <outline>
    <contour>
      <point x="43" y="-400" type="line"/>
      <point x="2398" y="-400" type="line"/>
      <point x="2398" y="236" type="line"/>
      <point x="2029" y="236" type="line"/>
      <point x="2029" y="-167" type="line"/>
      <point x="516" y="-167" type="line"/>
      <point x="821" y="599" type="line"/>
      <point x="821" y="601" type="line"/>
      <point x="516" y="1367" type="line"/>
      <point x="2004" y="1367" type="line"/>
      <point x="2004" y="959" type="line"/>
      <point x="2373" y="959" type="line"/>
      <point x="2373" y="1600" type="line"/>
      <point x="42" y="1600" type="line"/>
      <point x="445" y="600" type="line"/>
    </contour>
  </outline>
</glyph>
<glyph name="C.wide" format="2">
  <advance width="2587"/>
  <outline>
    <contour>
      <point x="179" y="0" type="line" identifier="7lPhzTnk2Z"/>
      <point x="2410" y="0" type="line" identifier="qJVLZGnkwh"/>
      <point x="2410" y="243" type="line" identifier="Y750RHTvDj"/>
      <point x="562" y="243" type="line" identifier="L2LsGnXiZ2"/>
      <point x="562" y="1058" type="line" identifier="sUWsr03vF4"/>
      <point x="740" y="1357" type="line" identifier="dbOUe6OhxL"/>
      <point x="2409" y="1357" type="line" identifier="5BjRbcud80"/>
      <point x="2409" y="1600" type="line" identifier="9eJelv8BOw"/>
      <point x="451" y="1600" type="line" identifier="lfZev3ICaC"/>
      <point x="179" y="1116" type="line" identifier="V1EWIdPahq"/>
    </contour>
  </outline>
</glyph>
<glyph name="G.wide" format="2">
  <advance width="2701"/>
  <outline>
    <contour>
      <point x="179" y="0" type="line" identifier="7lPhzTnk2Z"/>
      <point x="2456" y="0" type="line" identifier="qJVLZGnkwh"/>
      <point x="2456" y="919" type="line" identifier="uek1NNj7De"/>
      <point x="1450" y="919" type="line" identifier="qcvimxjndX"/>
      <point x="1450" y="707" type="line" identifier="EARaY3Su65"/>
      <point x="2075" y="707" type="line" identifier="4m6dHLVhZq"/>
      <point x="2075" y="233" type="line" identifier="Y750RHTvDj"/>
      <point x="562" y="233" type="line" identifier="L2LsGnXiZ2"/>
      <point x="562" y="1096" type="line" identifier="sUWsr03vF4"/>
      <point x="742" y="1367" type="line" identifier="dbOUe6OhxL"/>
      <point x="2456" y="1367" type="line" identifier="5BjRbcud80"/>
      <point x="2456" y="1600" type="line" identifier="9eJelv8BOw"/>
      <point x="442" y="1600" type="line" identifier="lfZev3ICaC"/>
      <point x="179" y="1145" type="line" identifier="V1EWIdPahq"/>
    </contour>
  </outline>
</glyph>
<glyph name="S.wide" format="2">
  <advance width="2660"/>
  <outline>
    <contour>
      <point x="178" y="0" type="line" identifier="09VlJ0BjUX"/>
      <point x="2192" y="0" type="line" identifier="EagWihqFM8"/>
      <point x="2483" y="407" type="line"/>
      <point x="2483" y="917" type="line" identifier="KfNuQA7eZe"/>
      <point x="542" y="917" type="line" identifier="At364YZFEy"/>
      <point x="542" y="1130" type="line"/>
      <point x="723" y="1371" type="line"/>
      <point x="2441" y="1371" type="line" identifier="3ZUkG35meB"/>
      <point x="2440" y="1600" type="line" identifier="SaF9ojRFrW"/>
      <point x="472" y="1600" type="line"/>
      <point x="180" y="1176" type="line"/>
      <point x="180" y="681" type="line" identifier="3sQ8t8BZ6b"/>
      <point x="2118" y="681" type="line" identifier="yiV6OCBLHg"/>
      <point x="2118" y="455" type="line"/>
      <point x="1935" y="231" type="line" identifier="9kdl9SYsn8"/>
      <point x="178" y="231" type="line" identifier="yZDWuX8LLe"/>
    </contour>
  </outline>
</glyph>
<glyph name="Z.wide" format="2">
  <advance width="2621"/>
  <outline>
    <contour>
      <point x="198" y="0" type="line"/>
      <point x="2421" y="0" type="line" identifier="pzdvPTirLJ"/>
      <point x="2421" y="233" type="line"/>
      <point x="593" y="233" type="line"/>
      <point x="593" y="446" type="line"/>
      <point x="2409" y="1165" type="line" identifier="yyb1NCCI5w"/>
      <point x="2409" y="1600" type="line" identifier="5FogYRSgkk"/>
      <point x="206" y="1600" type="line" identifier="svlFvrau4c"/>
      <point x="206" y="1367" type="line"/>
      <point x="2014" y="1367" type="line"/>
      <point x="2014" y="1238" type="line"/>
      <point x="198" y="524" type="line" identifier="teVKnpBcVb"/>
    </contour>
  </outline>
</glyph>
<glyph name="five.wide" format="2">
  <advance width="2628"/>
  <outline>
    <contour>
      <point x="178" y="0" type="line" identifier="09VlJ0BjUX"/>
      <point x="2452" y="0" type="line" identifier="EagWihqFM8"/>
      <point x="2452" y="914" type="line" identifier="KfNuQA7eZe"/>
      <point x="560" y="914" type="line" identifier="At364YZFEy"/>
      <point x="560" y="1364" type="line" identifier="BcuLfvaQKC"/>
      <point x="2452" y="1364" type="line" identifier="3ZUkG35meB"/>
      <point x="2452" y="1600" type="line" identifier="SaF9ojRFrW"/>
      <point x="177" y="1600" type="line" identifier="F4sQEYelA8"/>
      <point x="177" y="685" type="line" identifier="3sQ8t8BZ6b"/>
      <point x="2069" y="685" type="line" identifier="yiV6OCBLHg"/>
      <point x="2069" y="236" type="line" identifier="9kdl9SYsn8"/>
      <point x="178" y="236" type="line" identifier="yZDWuX8LLe"/>
    </contour>
  </outline>
</glyph>
<glyph name="nine.wide" format="2">
  <advance width="2812"/>
  <outline>
    <contour>
      <point x="222" y="0" type="line" identifier="oGvEEuxnYv"/>
      <point x="2475" y="0" type="line" identifier="xR3pEHbMJx"/>
      <point x="2475" y="1600" type="line" identifier="uiw6aBUf4P"/>
      <point x="221" y="1600" type="line" identifier="jtYkxiUX6G"/>
      <point x="221" y="685" type="line" identifier="2G5L37c87I"/>
      <point x="2092" y="685" type="line"/>
      <point x="2092" y="236" type="line"/>
      <point x="222" y="236" type="line"/>
    </contour>
    <contour>
      <point x="604" y="915" type="line"/>
      <point x="604" y="1364" type="line"/>
      <point x="2092" y="1364" type="line"/>
      <point x="2092" y="915" type="line"/>
    </contour>
  </outline>
</glyph>
<glyph name="three.wide" format="2">
  <advance width="2482"/>
  <outline>
    <contour>
      <point x="48" y="0" type="line" identifier="O9abUc1nmN"/>
      <point x="2359" y="0" type="line" identifier="kMJYMTfXCq"/>
      <point x="2359" y="913" type="line" identifier="su2XmdS8e8"/>
      <point x="2067" y="913" type="line" identifier="JQaOzDQqlF"/>
      <point x="2198" y="1121" type="line"/>
      <point x="2198" y="1600" type="line" identifier="xg8x2Ki40p"/>
      <point x="123" y="1600" type="line" identifier="pE1XSRiy68"/>
      <point x="123" y="1364" type="line" identifier="7ogBYufWpl"/>
      <point x="1814" y="1364" type="line" identifier="RHLvSX2Jv6"/>
      <point x="1814" y="1105" type="line"/>
      <point x="1698" y="913" type="line" identifier="iic1IBkDqp"/>
      <point x="599" y="913" type="line" identifier="lRLJEhXMlO"/>
      <point x="599" y="684" type="line" identifier="8aKgEELrVU"/>
      <point x="1976" y="684" type="line" identifier="Dm8zjmbhNr"/>
      <point x="1976" y="236" type="line" identifier="xv9CFHiFgB"/>
      <point x="48" y="236" type="line" identifier="YajKQV3MHP"/>
    </contour>
  </outline>
</glyph>
<glyph name="two.wide" format="2">
  <advance width="2666"/>
  <outline>
    <contour>
      <point x="224" y="0" type="line"/>
      <point x="2453" y="0" type="line" identifier="pzdvPTirLJ"/>
      <point x="2453" y="223" type="line"/>
      <point x="613" y="223" type="line"/>
      <point x="613" y="676" type="line"/>
      <point x="2447" y="676" type="line" identifier="yyb1NCCI5w"/>
      <point x="2447" y="1600" type="line" identifier="5FogYRSgkk"/>
      <point x="229" y="1600" type="line" identifier="svlFvrau4c"/>
      <point x="229" y="1377" type="line"/>
      <point x="2063" y="1377" type="line"/>
      <point x="2063" y="899" type="line"/>
      <point x="224" y="899" type="line" identifier="teVKnpBcVb"/>
    </contour>
  </outline>
</glyph>
